<?xml version="1.0" encoding="UTF-8"?>
<svg width="600px" height="700px" viewBox="0 0 600 700" version="1.1" xmlns="http://www.w3.org/2000/svg" xmlns:xlink="http://www.w3.org/1999/xlink">
    <!-- Generator: Sketch 45 (43475) - http://www.bohemiancoding.com/sketch -->
    <title>Artboard</title>
    <desc>Created with Sketch.</desc>
    <defs></defs>
    <g id="Page-1" stroke="none" stroke-width="1" fill="none" fill-rule="evenodd">
        <g id="Artboard">
            <g id="guerrilla-girls" transform="translate(203.000000, 142.000000)" fill="#6B6EBD">
                <path d="M193.640839,97.6341659 C190.792955,98.0308131 180.973956,99.3136307 177.574224,98.6737613 C177.488654,100.895601 177.250903,103.122059 176.834327,105.281811 C176.008349,109.574119 174.43735,113.700173 172.865838,117.516299 L172.738765,117.839055 C172.206388,119.135214 171.647366,120.449333 171.078097,121.760372 C170.882363,123.262808 170.496018,124.731891 169.940071,126.155305 C169.526057,129.136573 168.656012,132.07012 166.680222,134.271948 C166.291828,134.704001 165.854756,134.97134 165.404362,135.107319 C164.892481,135.944229 163.962486,136.479421 162.695337,136.194635 C160.52535,135.706651 158.464502,134.98109 156.473853,134.104156 C154.917201,133.516112 153.440482,132.781314 152.006293,131.969547 C151.683485,131.769428 149.621613,130.449152 146.771679,127.676214 C143.664524,124.652356 142.743752,124.933036 139.199526,122.674251 C135.66196,120.420084 119.182355,117.608148 119.116769,117.596859 C112.836359,114.958873 107.282525,112.267009 106.60514,112.014038 C106.60514,112.014038 106.60514,112.014038 106.60514,112.014038 C106.021524,111.764145 105.442007,111.560433 104.876324,111.420863 C104.876324,111.420863 90.8254651,104.846679 87.2407591,108.556075 C86.2200709,109.61209 86.0996584,110.221685 86.0996584,110.221685 C86.0996584,110.221685 84.8335337,115.715736 89.9113548,123.990935 C93.1199639,129.219186 96.1446237,132.975789 97.9390262,135.037021 C99.1764569,136.596414 100.906298,138.249196 103.228466,139.404245 C103.879206,139.911214 104.50945,140.364818 104.669829,140.474628 C106.17473,141.514736 107.836935,142.328556 109.53552,143.07105 C110.745793,143.48617 112.633964,144.096278 112.633964,144.096278 L113.298539,144.36413 C117.026715,145.862461 120.655487,147.241747 124.219697,148.548681 C125.489921,149.011009 126.755021,149.489756 128.035493,149.942847 C128.501771,150.10089 129.017239,150.276893 129.499401,150.441094 C131.967601,151.302634 134.447074,152.126716 136.93987,152.919497 C137.837071,153.20377 138.756305,153.477779 139.678614,153.759486 C141.873708,154.425525 144.082125,155.058211 146.292079,155.666779 C154.720954,157.965588 163.66786,159.874421 171.757531,160.455794 C172.445676,160.506593 173.049275,160.527118 173.670296,160.553801 C174.605927,160.580997 175.541558,160.619481 176.474627,160.626152 C177.987725,159.871342 179.597154,159.396186 181.362862,158.98825 C181.712827,158.90769 182.033073,158.818405 182.337948,158.72399 C184.080598,157.237461 185.492243,155.257817 186.44837,153.127827 C188.307334,133.846566 195.138566,116.981107 193.640839,97.6341659" id="Fill-1"></path>
                <path d="M160.935931,77.4538552 C161.763959,78.1722331 162.773887,78.5160282 163.798674,78.8208256 C164.247018,79.2436423 164.701512,79.6679983 165.146269,80.0826049 C166.306841,81.1704342 167.507379,82.2890511 168.665901,83.4143387 C168.748397,83.488229 168.834479,83.5759737 168.922098,83.6729547 C169.198278,83.9633846 169.506739,84.2917859 169.909481,84.4990892 C170.350139,84.7305095 170.835888,84.9352472 171.40772,85.1374192 C172.036939,85.3601163 172.688704,85.552539 173.314849,85.7280284 C173.653029,85.8296276 173.99787,85.9250692 174.33605,86.025129 C174.497966,86.0754154 174.678841,86.1267281 174.845369,86.1672651 C175.080045,86.2303798 175.328556,86.291955 175.544786,86.3684109 C175.911148,86.4977189 176.160171,86.6501177 176.329773,86.8456191 C176.755572,87.350536 176.856514,88.3393318 176.936447,89.1341656 C176.956943,89.2963137 176.969753,89.4425549 176.990249,89.5846911 C177.047124,90.0618992 177.114248,90.5437255 177.185983,90.9993823 C177.282313,91.6910775 177.386841,92.4171522 177.448841,93.115005 C177.448841,93.115005 188.520131,92.4212572 192.943625,91.8686194 C192.772486,90.8264585 192.58495,89.7791662 192.358984,88.7205852 C191.817384,86.1775277 191.804062,83.8915468 192.172985,81.840065 L192.097663,80.696818 C192.276489,80.0266741 192.084853,78.600181 191.865549,77.452829 C191.58527,75.9509062 189.290258,71.4302572 187.267841,67.8676163 C185.650214,65.0151432 182.759801,60.174816 181.523395,59.7042785 C179.710034,59.0120702 177.059934,59.9623814 176.736101,60.0783481 C174.683452,60.6284203 164.764024,63.3397834 163.379024,64.9879474 L163.377486,64.994105 L163.371338,64.9920524 C162.458765,66.085013 162.515128,67.6895612 162.666284,68.9595506 L162.677557,69.0539659 C162.808729,70.1243489 162.880465,71.0315575 162.852283,72.0208664 C162.121097,71.9100309 161.433977,72.0331814 160.932344,72.5781223 C160.767353,72.7566905 160.621321,72.9886239 160.496297,73.267765 C159.959308,74.5203081 159.777921,76.4522313 160.935931,77.4538552" id="Fill-5"></path>
                <path d="M139.768078,117.252808 C139.341766,117.929109 139.497021,118.066114 140.112918,117.556579 L149.994943,109.386571 C150.61084,108.877549 150.495039,108.253586 149.737209,108.000615 L146.175048,106.810673 C145.417218,106.557701 145.211748,105.844455 145.717993,105.225624 L150.19785,99.7536371 C150.704095,99.1348059 150.583683,99.0049848 149.929869,99.4647466 L138.688976,107.368955 C138.035162,107.828717 138.121244,108.409064 138.880099,108.658443 L142.722539,109.921249 C143.481907,110.171142 143.753988,110.928517 143.327676,111.605332 L139.768078,117.252808 Z" id="Fill-7"></path>
                <path d="M147.263987,125.507431 C146.837675,126.183732 146.992931,126.320737 147.608828,125.811202 L154.373961,120.218118 C154.990371,119.708582 154.874057,119.085133 154.116227,118.831648 L152.178867,118.184595 C151.421037,117.931624 151.215054,117.218377 151.721812,116.599546 L154.575844,113.112848 C155.082602,112.494017 154.962189,112.364195 154.308375,112.823957 L146.568669,118.266182 C145.914854,118.725944 146.000936,119.306291 146.759791,119.555671 L148.904671,120.260707 C149.664039,120.510087 149.93612,121.267975 149.509808,121.944277 L147.263987,125.507431 Z" id="Fill-9"></path>
                <path d="M128.788814,116.366176 C128.362502,117.042477 128.517757,117.179482 129.133655,116.669947 L135.898788,111.076862 C136.515198,110.567327 136.398884,109.943878 135.641054,109.690393 L133.703694,109.04334 C132.945863,108.790368 132.739881,108.077122 133.246639,107.458291 L136.100671,103.971592 C136.607429,103.352761 136.487016,103.22294 135.833202,103.682702 L128.093495,109.124927 C127.439681,109.584689 127.525763,110.165036 128.284618,110.414415 L130.429498,111.119452 C131.188866,111.368832 131.460947,112.12672 131.034635,112.803022 L128.788814,116.366176 Z" id="Fill-11"></path>
                <g id="head" transform="translate(0.000000, 0.091850)">
                    <path d="M69.5838273,57.3061794 C67.6495413,57.264103 64.9266814,58.8091284 64.0607361,60.3623639 C61.0909024,65.6917011 66.3993007,65.5305793 66.783596,67.7986007 C67.0249334,69.2250938 66.7108361,69.8618844 65.6245615,70.6495344 C65.5569256,70.6987946 65.4570088,70.7701192 65.3401831,70.8496539 C63.9700424,71.0713248 62.0936568,70.7778161 60.5523767,70.4760975 C57.8018476,68.8351173 55.9582552,65.8292192 55.9582552,62.390755 C55.9582552,57.1943177 60.1644947,52.982058 65.3535053,52.982058 C67.4246005,52.982058 69.3378784,53.6542544 70.8909435,54.7913439 C71.1450908,55.8432543 70.8955551,57.3344014 69.5838273,57.3061794 M129.2203,85.2705757 L129.2203,84.15709 C129.113722,84.0590828 129.011244,83.9667199 128.992798,83.9513261 C128.936434,83.9046315 128.885707,83.853832 128.836518,83.8025193 L123.831969,81.7689969 L124.110711,75.9265327 C123.804299,75.5919738 123.603953,75.1737753 123.508136,74.7273548 L110.87507,65.9159376 L108.574423,57.1045205 L114.603246,51.7387512 C114.679081,51.3918774 114.765163,51.0480823 114.858419,50.7058266 L115.25911,42.9904487 C115.287804,42.9848043 115.318036,42.9817255 115.347242,42.9760811 C103.667229,10.60495 69.0268554,0.590763137 68.6528081,0.494808384 C67.5977895,0.215154159 66.4930688,0.750858767 66.1128727,1.76223212 C65.7060321,2.77360547 66.1451535,3.91274746 67.1110155,4.42176946 C68.3289753,5.03752188 69.2200278,6.44451617 69.8584703,7.95567524 C63.326476,4.31760467 56.4352937,2.47034741 49.3089227,2.47034741 C31.4653259,2.47034741 18.1313058,13.893068 16.3338288,15.5083918 C15.7994022,15.8916977 15.4519993,16.5197652 15.4519993,17.2278805 C15.4519993,18.3906263 16.3907045,19.3424769 17.564086,19.3424769 C17.6681019,19.3424769 17.807473,19.330675 17.935059,19.3070711 C18.6780298,19.1793025 19.4087032,19.1223454 20.0799389,19.1223454 C22.2868183,19.1223454 23.7840326,19.7827399 24.7703904,20.469817 C10.0221638,28.7901716 2.12976424,41.9441827 0.935374622,44.0115715 C0.667905133,44.3594716 0.507525918,44.8028133 0.507525918,45.2789952 C0.507525918,46.4509773 1.4462311,47.3941048 2.64062072,47.3941048 C3.08281644,47.3941048 3.49888009,47.265823 3.86114241,47.0102858 C4.93973106,46.2544497 6.72491056,45.7074563 8.98815335,45.4185658 C2.54838986,52.0999927 0.795491154,60.3038674 0.715557743,60.7323285 C0.012041251,64.1897784 -0.148850358,67.7221448 0.128354611,71.2914563 C1.74239463,70.9810144 3.35592226,70.6982815 4.9684251,70.4211929 C2.29014345,81.2835787 2.5207206,89.5397925 2.53199326,89.7234919 C2.58733178,90.8149131 3.4332937,91.7057016 4.51085757,91.7606062 C5.59661973,91.8401409 6.54659757,91.0740423 6.73618322,89.998528 C6.95087617,88.649004 8.01767976,87.3702914 9.26074678,86.3009347 C7.78966458,93.6396773 8.13143115,100.776248 10.3024431,107.573642 C15.7368902,124.594065 30.6624051,133.833943 32.7463101,135.056212 C33.2740756,135.449267 33.9770796,135.589864 34.6503649,135.37435 C35.7566228,135.01978 36.3761068,133.834969 36.0189684,132.715326 C35.9872,132.616293 35.9333986,132.486471 35.8719114,132.372044 C35.5239961,131.702926 35.2473035,131.023033 35.0428585,130.382651 C34.370598,128.27729 34.5432746,126.648112 34.8963139,125.498195 C47.3018767,137.032264 62.2166313,140.554368 64.5469977,141.06339 C64.9594746,141.21271 65.4293395,141.230669 65.8822955,141.085454 C66.9972641,140.728831 67.6080374,139.546073 67.2442379,138.406931 C67.1094784,137.985141 66.8614798,137.626978 66.5074158,137.359126 C65.4605956,136.561213 64.3963539,135.024911 63.4325415,132.953417 C71.7486905,137.062025 80.0853353,136.234864 80.5172832,136.180473 C84.0200062,135.798706 87.6718358,137.806572 90.9829237,136.454996 C90.7912884,136.158922 90.5730087,135.819745 90.3347457,135.439517 C90.1651434,135.331761 89.9996402,135.2004 89.8402858,135.038765 C86.0511347,131.181589 82.7897491,126.619377 80.2036983,121.87757 C77.7585557,117.393353 75.4497099,112.061964 76.5984965,106.85629 C76.9330896,105.34 77.5699949,104.181872 78.4072461,103.299293 C81.3652947,98.4230474 90.5560997,99.1886329 95.7476723,102.39619 C95.7656061,102.400295 95.7835398,102.400808 95.801986,102.404913 C96.1350419,102.480343 96.4455524,102.641978 96.7545258,102.795916 C96.9272025,102.861596 97.0906561,102.943696 97.2438618,103.042217 C98.6708781,103.402432 100.049217,103.886824 101.293821,104.655488 C102.149006,104.742207 103.002654,104.837648 103.858864,104.911539 L108.22702,104.315798 L123.137675,96.3613031 L129.22235,85.2931533 C129.22235,85.2854564 129.2203,85.2782726 129.2203,85.2705757" id="Fill-13"></path>
                </g>
            </g>
            <text id="The-Guerrilla-Girls" font-family="Lato-Light, Lato" font-size="40" font-weight="300" line-spacing="50" fill="#4A4A4A">
                <tspan x="85.4096227" y="363">The Guerrilla Girls asked:</tspan>
            </text>
            <text id="Little-has-changed-s" font-family="TitilliumWeb-Regular, Titillium Web" font-size="50" font-weight="normal" line-spacing="65" fill="#580357">
                <tspan x="98.1846987" y="623.899963">Little has changed </tspan>
                <tspan x="176.059699" y="688.899963">since then:</tspan>
            </text>
            <g id="Group" transform="translate(157.000000, 5.000000)">
                <text id="1989" font-family="TitilliumWeb-Bold, Titillium Web" font-size="90" font-weight="bold" fill="#AAADFF">
                    <tspan x="42" y="102">1989</tspan>
                </text>
                <text id="in" font-family="Lato-Regular, Lato" font-size="50" font-weight="normal" fill="#4A4A4A">
                    <tspan x="0" y="102">in</tspan>
                </text>
            </g>
            <text id="¿Do-women-have-to-be" font-family="Lato-Bold, Lato" font-size="40" font-weight="bold" line-spacing="50" fill="#AAADFF">
                <tspan x="100.53" y="438">¿Do women have to be </tspan>
                <tspan x="68.2" y="488">naked to enter a museum?</tspan>
            </text>
        </g>
    </g>
</svg>